<svg width="671" height="676" viewBox="0 0 671 676" fill="none" xmlns="http://www.w3.org/2000/svg">
<g clip-path="url(#clip0_2391_15)">
<path d="M169.19 648.409C168.45 648.443 167.717 648.249 167.091 647.853C166.465 647.457 165.976 646.877 165.69 646.194C165.404 645.51 165.336 644.756 165.493 644.032C165.651 643.308 166.027 642.65 166.571 642.147C166.662 641.785 166.727 641.525 166.819 641.162C166.11 639.363 164.881 637.817 163.288 636.721C161.695 635.625 159.811 635.029 157.877 635.011C155.944 634.993 154.049 635.553 152.436 636.618C150.822 637.684 149.564 639.207 148.822 640.993C144.539 651.016 138.997 661.393 141.753 672.433C123.547 633.847 129.739 585.851 156.645 552.853C164.082 548.756 170.11 541.478 171.679 533.026C167.999 534.273 163.409 531.279 166.177 527.402C167.376 525.92 168.588 524.45 169.787 522.968C155.805 508.078 139.146 531.48 154.536 551.578C149.502 557.89 145.141 564.711 141.525 571.93C142.36 564.264 141.363 556.51 138.617 549.305C135.833 542.59 130.616 536.935 126.022 531.13C120.436 524.057 108.939 527.32 108.187 536.296C113.342 537.991 114.012 545.437 108.115 546.457C109.66 563.154 120.569 578.5 135.593 585.823C130.045 601.391 127.878 617.963 129.238 634.434C126.586 615.184 105.922 610.513 91.4795 602.862C90.5602 602.272 89.4893 601.963 88.3973 601.972C87.3053 601.981 86.2395 602.307 85.3298 602.911C84.4201 603.515 83.706 604.371 83.2744 605.374C82.8428 606.377 82.7125 607.484 82.8994 608.56C84.8928 609.371 86.8008 610.377 88.5952 611.565C89.436 612.131 90.0814 612.942 90.4429 613.889C90.8044 614.835 90.8644 615.87 90.6145 616.852C90.3646 617.834 89.8171 618.715 89.0472 619.373C88.2772 620.032 87.3224 620.436 86.3136 620.531C93.5937 638.549 112.416 650.648 131.747 650.58C133.605 658.653 136.297 666.511 139.779 674.027H168.471C168.574 673.708 168.666 673.379 168.759 673.06C166.103 673.227 163.437 673.068 160.819 672.587C167.846 664.268 173.28 660.024 169.19 648.41L169.19 648.409Z" fill="#F2F2F2"/>
<path d="M424.982 648.409C425.722 648.443 426.454 648.249 427.08 647.853C427.706 647.457 428.195 646.877 428.481 646.194C428.767 645.51 428.836 644.756 428.678 644.032C428.521 643.308 428.144 642.65 427.6 642.147C427.509 641.785 427.444 641.525 427.353 641.162C428.061 639.363 429.291 637.817 430.884 636.721C432.477 635.625 434.361 635.029 436.294 635.011C438.228 634.993 440.123 635.553 441.736 636.618C443.349 637.684 444.608 639.207 445.35 640.993C449.632 651.016 455.174 661.393 452.418 672.433C470.624 633.847 464.433 585.851 437.527 552.853C430.089 548.756 424.061 541.478 422.492 533.026C426.173 534.273 430.762 531.279 427.995 527.402C426.795 525.92 425.584 524.45 424.384 522.968C438.366 508.078 455.025 531.48 439.635 551.578C444.67 557.89 449.031 564.711 452.647 571.93C451.811 564.264 452.808 556.51 455.555 549.305C458.338 542.59 463.555 536.935 468.15 531.13C473.736 524.057 485.233 527.32 485.984 536.296C480.829 537.991 480.159 545.437 486.056 546.457C484.512 563.154 473.603 578.5 458.578 585.823C464.126 601.391 466.293 617.963 464.933 634.434C467.585 615.184 488.249 610.513 502.692 602.862C503.611 602.272 504.682 601.963 505.774 601.972C506.866 601.981 507.932 602.307 508.842 602.911C509.751 603.515 510.465 604.371 510.897 605.374C511.329 606.377 511.459 607.484 511.272 608.56C509.279 609.371 507.371 610.377 505.576 611.565C504.735 612.131 504.09 612.942 503.728 613.889C503.367 614.835 503.307 615.87 503.557 616.852C503.807 617.834 504.354 618.715 505.124 619.373C505.894 620.032 506.849 620.436 507.858 620.531C500.578 638.549 481.756 650.648 462.424 650.58C460.566 658.653 457.875 666.511 454.392 674.027H425.701C425.598 673.708 425.505 673.379 425.413 673.06C428.068 673.227 430.735 673.068 433.352 672.587C426.326 664.268 420.892 660.023 424.982 648.409Z" fill="#F2F2F2"/>
<path d="M435.621 652.673L423.265 655.483L406.541 609.161L424.778 605.012L435.621 652.673Z" fill="#FFB6B6"/>
<path d="M438.99 665.46L400.993 674.106L400.884 673.625C399.991 669.703 400.694 665.586 402.836 662.182C404.978 658.777 408.385 656.363 412.308 655.47L418.051 648.625L432.199 650.944L435.516 650.19L438.99 665.46Z" fill="#2F2E41"/>
<path d="M634.948 426.879L641.74 437.576L603.712 468.87L593.686 453.081L634.948 426.879Z" fill="#FFB6B6"/>
<path d="M645.867 419.414L666.757 452.31L666.341 452.574C662.945 454.73 658.832 455.449 654.906 454.573C650.98 453.697 647.563 451.297 645.406 447.902L637.031 444.787L634.47 430.681L632.646 427.81L645.867 419.414Z" fill="#2F2E41"/>
<path d="M241.075 312.511L238.023 294.822L284.421 273.871L294.441 256.131C294.117 254.574 294.23 252.958 294.767 251.462C295.304 249.965 296.245 248.646 297.484 247.651C298.724 246.655 300.215 246.021 301.792 245.82C303.369 245.618 304.971 245.856 306.421 246.508C307.872 247.16 309.114 248.2 310.01 249.513C310.906 250.826 311.422 252.362 311.501 253.95C311.579 255.538 311.217 257.117 310.455 258.512C309.692 259.907 308.559 261.065 307.18 261.856L290.697 287.339L241.075 312.511Z" fill="#A0616A"/>
<path d="M226.971 298.052L247.865 287.379L253.396 308.147L238.883 318.905L226.971 298.052Z" fill="#1AFFFF"/>
<path d="M180.085 651.062L192.718 651.061L198.728 602.332L180.082 602.333L180.085 651.062Z" fill="#A0616A"/>
<path d="M196.924 652.197V643.633L193.603 643.836L180.083 644.637L176.954 644.829L174.562 673.513L174.434 675.051H183.404L183.692 673.524L184.995 666.582L188.359 673.524L189.096 675.051H212.878C214.294 675.042 215.648 674.475 216.648 673.473C217.648 672.471 218.212 671.116 218.218 669.7C219.222 665.012 199.444 654.878 196.924 652.197Z" fill="#2F2E41"/>
<path d="M30.1227 457.676L27.1777 469.962L73.1627 487.168L77.5087 469.036L30.1227 457.676Z" fill="#A0616A"/>
<path d="M26.0914 473.785L34.42 475.782L34.9971 472.505L37.3705 459.171L37.9131 456.083L10.5774 447.069L9.11189 446.586L7.02034 455.309L8.43812 455.946L14.8844 458.831L7.35002 460.484L5.69319 460.844L0.148113 483.971C-0.173145 485.349 0.0622736 486.799 0.803295 488.004C1.54432 489.21 2.73108 490.075 4.10588 490.411C8.43074 492.48 22.8972 475.61 26.0914 473.785Z" fill="#2F2E41"/>
<path d="M199.619 335.691L183.358 328.09L150.93 367.334L131.177 372.329C129.761 371.607 128.172 371.291 126.587 371.415C125.002 371.539 123.482 372.099 122.195 373.033C120.908 373.966 119.904 375.238 119.294 376.706C118.685 378.175 118.492 379.783 118.739 381.354C118.986 382.924 119.663 384.396 120.694 385.607C121.725 386.817 123.07 387.719 124.581 388.213C126.093 388.707 127.711 388.773 129.258 388.405C130.805 388.037 132.22 387.248 133.346 386.126L162.27 376.935L199.619 335.691Z" fill="#A0616A"/>
<path d="M430.158 190.414C426.711 190.414 423.342 189.392 420.476 187.477C417.61 185.562 415.376 182.84 414.057 179.656C412.738 176.471 412.393 172.967 413.065 169.586C413.738 166.206 415.398 163.1 417.835 160.663C420.272 158.226 423.378 156.566 426.758 155.893C430.139 155.221 433.643 155.566 436.828 156.885C440.012 158.204 442.734 160.438 444.649 163.304C446.564 166.17 447.586 169.539 447.586 172.986C447.581 177.607 445.743 182.037 442.476 185.304C439.209 188.571 434.779 190.409 430.158 190.414ZM430.158 157.559C427.107 157.559 424.124 158.463 421.587 160.159C419.05 161.854 417.073 164.263 415.905 167.082C414.737 169.901 414.432 173.003 415.027 175.996C415.622 178.989 417.092 181.738 419.249 183.895C421.407 186.053 424.156 187.522 427.148 188.118C430.141 188.713 433.243 188.407 436.062 187.24C438.881 186.072 441.291 184.095 442.986 181.558C444.681 179.02 445.586 176.038 445.586 172.986C445.581 168.896 443.954 164.975 441.062 162.082C438.17 159.19 434.248 157.563 430.158 157.559Z" fill="#E6E6E6"/>
<path d="M428.929 179.551C428.894 179.551 428.859 179.55 428.824 179.548C428.515 179.533 428.212 179.451 427.937 179.308C427.662 179.166 427.422 178.965 427.232 178.72L424.486 175.191C424.313 174.968 424.185 174.713 424.11 174.441C424.035 174.169 424.015 173.885 424.05 173.605C424.085 173.325 424.175 173.054 424.314 172.809C424.454 172.563 424.64 172.348 424.863 172.175L424.962 172.098C425.185 171.924 425.439 171.796 425.712 171.721C425.984 171.646 426.268 171.626 426.548 171.661C426.829 171.696 427.099 171.786 427.345 171.925C427.59 172.065 427.806 172.252 427.979 172.475C428.117 172.653 428.293 172.799 428.493 172.903C428.694 173.007 428.914 173.066 429.139 173.077C429.365 173.088 429.59 173.05 429.799 172.966C430.009 172.882 430.198 172.754 430.353 172.59L435.927 166.706C436.319 166.292 436.86 166.051 437.429 166.036C437.999 166.02 438.552 166.232 438.966 166.623L439.057 166.71C439.262 166.904 439.427 167.137 439.542 167.395C439.657 167.652 439.72 167.93 439.728 168.212C439.735 168.495 439.687 168.775 439.586 169.039C439.485 169.303 439.334 169.544 439.139 169.749L430.489 178.879C430.288 179.091 430.046 179.26 429.778 179.376C429.51 179.491 429.221 179.551 428.929 179.551Z" fill="#E6E6E6"/>
<path d="M343.158 401.414C339.711 401.414 336.342 400.392 333.476 398.477C330.61 396.562 328.376 393.84 327.057 390.656C325.738 387.471 325.393 383.967 326.065 380.586C326.738 377.206 328.398 374.1 330.835 371.663C333.272 369.226 336.378 367.566 339.758 366.893C343.139 366.221 346.643 366.566 349.828 367.885C353.012 369.204 355.734 371.438 357.649 374.304C359.564 377.17 360.586 380.539 360.586 383.986C360.581 388.607 358.743 393.037 355.476 396.304C352.209 399.571 347.779 401.409 343.158 401.414ZM343.158 368.559C340.107 368.559 337.124 369.463 334.587 371.159C332.05 372.854 330.073 375.263 328.905 378.082C327.737 380.901 327.432 384.003 328.027 386.996C328.622 389.989 330.092 392.738 332.249 394.895C334.407 397.053 337.156 398.522 340.148 399.118C343.141 399.713 346.243 399.407 349.062 398.24C351.881 397.072 354.291 395.095 355.986 392.558C357.681 390.02 358.586 387.038 358.586 383.986C358.581 379.896 356.954 375.975 354.062 373.082C351.17 370.19 347.248 368.563 343.158 368.559Z" fill="#E6E6E6"/>
<path d="M341.929 390.551C341.894 390.551 341.859 390.55 341.824 390.548C341.515 390.533 341.212 390.451 340.937 390.308C340.662 390.166 340.422 389.965 340.232 389.72L337.486 386.191C337.313 385.968 337.185 385.713 337.11 385.441C337.035 385.169 337.015 384.885 337.05 384.605C337.085 384.325 337.175 384.054 337.314 383.809C337.454 383.563 337.64 383.348 337.863 383.175L337.962 383.098C338.185 382.924 338.439 382.796 338.712 382.721C338.984 382.646 339.268 382.626 339.548 382.661C339.829 382.696 340.099 382.786 340.345 382.925C340.59 383.065 340.806 383.252 340.979 383.475C341.117 383.653 341.293 383.799 341.493 383.903C341.694 384.007 341.914 384.066 342.139 384.077C342.365 384.088 342.59 384.05 342.799 383.966C343.009 383.882 343.198 383.754 343.353 383.59L348.927 377.706C349.319 377.292 349.86 377.051 350.429 377.036C350.999 377.02 351.552 377.232 351.966 377.623L352.057 377.71C352.262 377.904 352.427 378.137 352.542 378.395C352.657 378.652 352.72 378.93 352.728 379.212C352.735 379.495 352.687 379.775 352.586 380.039C352.485 380.303 352.334 380.544 352.139 380.749L343.489 389.879C343.288 390.091 343.046 390.26 342.778 390.376C342.51 390.491 342.221 390.551 341.929 390.551Z" fill="#E6E6E6"/>
<path d="M152.158 166.414C148.711 166.414 145.342 165.392 142.476 163.477C139.61 161.562 137.376 158.84 136.057 155.656C134.738 152.471 134.393 148.967 135.065 145.586C135.738 142.206 137.398 139.1 139.835 136.663C142.272 134.226 145.378 132.566 148.758 131.893C152.139 131.221 155.643 131.566 158.828 132.885C162.012 134.204 164.734 136.438 166.649 139.304C168.564 142.17 169.586 145.539 169.586 148.986C169.581 153.607 167.743 158.037 164.476 161.304C161.209 164.571 156.779 166.409 152.158 166.414ZM152.158 133.559C149.107 133.559 146.124 134.463 143.587 136.159C141.05 137.854 139.073 140.263 137.905 143.082C136.737 145.901 136.432 149.003 137.027 151.996C137.622 154.989 139.092 157.738 141.249 159.895C143.407 162.053 146.156 163.522 149.148 164.118C152.141 164.713 155.243 164.407 158.062 163.24C160.881 162.072 163.291 160.095 164.986 157.558C166.681 155.02 167.586 152.038 167.586 148.986C167.581 144.896 165.954 140.975 163.062 138.082C160.17 135.19 156.248 133.563 152.158 133.559Z" fill="#E6E6E6"/>
<path d="M150.929 155.551C150.894 155.551 150.859 155.55 150.824 155.548C150.515 155.533 150.212 155.451 149.937 155.308C149.662 155.166 149.422 154.965 149.232 154.72L146.486 151.191C146.313 150.968 146.185 150.713 146.11 150.441C146.035 150.169 146.015 149.885 146.05 149.605C146.085 149.325 146.175 149.054 146.314 148.809C146.454 148.563 146.64 148.348 146.863 148.175L146.962 148.098C147.185 147.924 147.439 147.796 147.712 147.721C147.984 147.646 148.268 147.626 148.548 147.661C148.829 147.696 149.099 147.786 149.345 147.925C149.59 148.065 149.806 148.252 149.979 148.475C150.117 148.653 150.293 148.799 150.493 148.903C150.694 149.007 150.914 149.066 151.139 149.077C151.365 149.088 151.59 149.05 151.799 148.966C152.009 148.882 152.198 148.754 152.353 148.59L157.927 142.705C158.319 142.292 158.86 142.051 159.429 142.036C159.999 142.02 160.552 142.232 160.966 142.623L161.057 142.71C161.262 142.904 161.427 143.137 161.542 143.394C161.657 143.652 161.72 143.93 161.728 144.212C161.735 144.495 161.687 144.775 161.586 145.039C161.485 145.303 161.334 145.544 161.139 145.749L152.489 154.879C152.288 155.091 152.046 155.26 151.778 155.376C151.51 155.491 151.221 155.551 150.929 155.551Z" fill="#E6E6E6"/>
<path d="M291.684 466.212C251.271 466.212 204.827 421.365 163.735 442.673C39.3201 507.187 56.4465 399.233 20.7031 359.084L21.8766 356.73C61.3153 392.094 110.556 420.866 164.275 439.935C212.821 457.17 261.731 465.155 305.699 463.048L305.775 465.877C301.132 466.101 296.435 466.212 291.684 466.212Z" fill="#F2F2F2"/>
<path d="M236.248 163.003C240.913 163.003 244.696 157.931 244.696 151.675C244.696 145.419 240.913 140.348 236.248 140.348C231.583 140.348 227.801 145.419 227.801 151.675C227.801 157.931 231.583 163.003 236.248 163.003Z" fill="#E6E6E6"/>
<path d="M333.816 339.715C329.954 342.288 326.001 336.164 329.937 333.705C333.799 331.132 337.752 337.256 333.816 339.715Z" fill="#E6E6E6"/>
<path d="M311.586 133.531C317.661 133.531 322.586 128.606 322.586 122.531C322.586 116.456 317.661 111.531 311.586 111.531C305.511 111.531 300.586 116.456 300.586 122.531C300.586 128.606 305.511 133.531 311.586 133.531Z" fill="#FF6584"/>
<path opacity="0.3" d="M350.061 182.809L412.654 0L343.923 180.621C343.583 181.049 343.35 181.553 343.243 182.09C343.137 182.626 343.16 183.181 343.311 183.707C343.461 184.233 343.735 184.715 344.11 185.114C344.484 185.513 344.948 185.817 345.464 186.001C345.979 186.184 346.531 186.243 347.073 186.171C347.615 186.098 348.133 185.898 348.582 185.586C349.032 185.274 349.4 184.859 349.657 184.376C349.914 183.893 350.053 183.356 350.061 182.809Z" fill="#F0F0F0"/>
<path d="M286.88 405.522C292.791 405.522 297.582 400.73 297.582 394.82C297.582 388.909 292.791 384.117 286.88 384.117C280.969 384.117 276.178 388.909 276.178 394.82C276.178 400.73 280.969 405.522 286.88 405.522Z" fill="#F2F2F2"/>
<path d="M183.226 398.902C183.226 398.902 156.545 416.276 163.6 427.82C163.844 428.218 131.73 470.631 131.73 470.631L71.1085 466.783L68.9727 487.073L122.943 502.704C122.943 502.704 136.146 512.404 146.346 501.717C156.545 491.029 190.52 458.301 190.52 458.301L192.158 524.378L175.103 615.941L200.568 614.326L225.354 522.466L234.503 418.412L183.226 398.902Z" fill="#2F2E41"/>
<path d="M202.23 294.636L191.01 303.139L178.222 330.432L190.519 347.133C190.519 347.133 200.863 365.06 184.306 382.42C167.749 399.781 155.035 418.323 168.287 417.661C181.539 416.999 235.212 444.298 235.565 421.933C235.919 399.568 236.633 382.42 236.633 382.42L250.705 346.729C250.705 346.729 259.089 325.438 253.203 319.064C247.317 312.691 239.436 304.547 239.436 304.547L225.104 290.215H212.163L202.23 294.636Z" fill="#1AFFFF"/>
<path d="M223.174 242.193C248.344 256.516 227.681 294.307 202.041 280.85C176.871 266.528 197.535 228.737 223.174 242.193Z" fill="#A0616A"/>
<path d="M236.633 250.135C234.869 252.429 231.184 251.353 223.969 252.99C223.984 250.544 223.702 248.105 223.127 245.728C222.59 248.672 221.414 251.461 219.68 253.901C213.415 254.596 221.096 273.63 217.888 287.625C213.754 258.1 205.06 265.836 209.452 271.692C212.264 275.441 210.389 286.688 201.954 281.065C188.036 287.679 168.213 254.821 190.183 239.411C189.791 231.082 199.059 229.766 204.766 232.327C218.616 222.009 234.441 235.23 236.633 250.135Z" fill="#2F2E41"/>
<path d="M172.052 228.591C166.448 263.046 136.412 222.255 122.289 256.162C117.849 268.441 125.467 277.225 130.286 287.417C131.386 295.793 120.49 300.042 119.348 307.752C119.031 325.429 147.548 324.347 155.521 313.195C163.712 301.521 153.93 285.857 158.854 273.326C165.774 255.929 193.918 255.8 196.369 235.559C191.621 228.798 178.853 221.053 172.052 228.591Z" fill="#2F2E41"/>
<path d="M194.753 231.957C194.57 232.034 194.386 232.111 194.222 232.198H194.213C194.058 232.275 193.904 232.353 193.75 232.439C193.73 232.449 193.721 232.459 193.701 232.468C193.499 232.275 193.296 232.082 193.084 231.889C193.029 232.204 193.042 232.526 193.122 232.835L193.151 232.951C193.344 233.153 193.547 233.346 193.759 233.549C193.952 233.404 194.136 233.25 194.328 233.105C194.444 233.009 194.56 232.912 194.686 232.816C194.705 232.565 194.734 232.275 194.763 231.957L194.753 231.957ZM200.562 221.227C196.258 220.243 194.869 225.869 194.454 228.58C192.891 218.738 186.387 221.835 188.636 228.551C189.352 230.539 190.48 232.354 191.945 233.877C192.148 234.109 192.37 234.34 192.601 234.572C192.341 235.923 193.653 235.575 195.428 234.331C196.739 233.398 197.952 232.335 199.047 231.156C202.588 227.441 205.347 222.472 200.562 221.227ZM200.697 226.766C199.369 228.478 197.879 230.058 196.249 231.484C195.737 231.947 195.216 232.391 194.686 232.816C194.676 232.903 194.676 232.98 194.666 233.047C194.629 233.141 194.584 233.231 194.531 233.317C193.991 234.292 193.383 233.761 193.151 232.951C193.132 232.922 193.103 232.893 193.084 232.864C192.313 232.067 191.642 231.18 191.086 230.22C187.101 223.312 193.518 218.613 193.2 231.513C193.141 231.631 193.102 231.759 193.084 231.889C193.029 232.204 193.042 232.526 193.122 232.835L193.151 232.951C193.344 233.153 193.547 233.346 193.759 233.549C193.952 233.404 194.136 233.25 194.328 233.105C194.444 233.009 194.56 232.912 194.686 232.816C194.705 232.565 194.734 232.275 194.763 231.957V231.947C195.014 229.361 195.699 224.711 196.963 223.447C199.741 221.314 203.34 223.62 200.697 226.766ZM194.753 231.957C194.57 232.034 194.386 232.111 194.222 232.198H194.213C194.058 232.275 193.904 232.353 193.75 232.439C193.73 232.449 193.721 232.459 193.701 232.468C193.499 232.275 193.296 232.082 193.084 231.889C193.029 232.204 193.042 232.526 193.122 232.835L193.151 232.951C193.344 233.153 193.547 233.346 193.759 233.549C193.952 233.404 194.136 233.25 194.328 233.105C194.444 233.009 194.56 232.912 194.686 232.816C194.705 232.565 194.734 232.275 194.763 231.957L194.753 231.957Z" fill="#2F2E41"/>
<path d="M427.397 421.919L418.101 446.162L374.492 532.182L412.811 632.249L432.587 627.029L416.287 532.182L463.051 475.362L518.587 513.029C518.587 513.029 543.217 532.257 552.587 514.029C561.957 495.801 622.587 457.029 622.587 457.029L607.587 441.029L537.768 473.703L489.579 405.875L427.397 421.919Z" fill="#2F2E41"/>
<path d="M474.302 307.564L459 291.123L432.75 287.512L400.586 310.029L400.91 334.952L416.81 393.681C416.81 393.681 410.754 435.875 427.67 435.452C444.586 435.029 453.806 426.595 460.696 428.312C467.586 430.029 496.874 437.335 498.73 429.682C500.586 422.028 510.452 427.508 510.019 420.268C509.586 413.028 483.31 360.842 483.31 360.842L489.843 308.65L474.302 307.564Z" fill="#1AFFFF"/>
<path d="M571.194 231.883C571.331 233.246 571.168 234.623 570.715 235.917C570.262 237.21 569.531 238.388 568.574 239.369C567.616 240.349 566.456 241.108 565.173 241.591C563.891 242.074 562.518 242.27 561.152 242.166L525.962 309.092L516.514 294.589L552.483 231.424C552.811 229.141 553.965 227.057 555.727 225.567C557.489 224.078 559.736 223.286 562.042 223.343C564.349 223.399 566.554 224.3 568.241 225.874C569.928 227.448 570.979 229.586 571.194 231.883Z" fill="#FFB6B6"/>
<path d="M460.411 320.008C460.411 320.008 459.015 331.913 472.417 334.86C485.819 337.807 522.949 316.591 529.037 313.351C530.943 312.336 533.529 307.362 536.183 301.008C537.374 298.156 538.579 295.025 539.742 291.85C540.415 290.012 543.638 289.511 544.273 287.688C544.903 285.876 542.946 282.742 543.517 281.034C546.228 272.926 548.149 266.494 548.149 266.494L539.267 249.809C526.843 256.376 520.472 270.843 515.785 287.51L460.411 320.008Z" fill="#1AFFFF"/>
<path d="M303.889 247.251C304.098 248.606 304.601 249.898 305.363 251.037C306.125 252.176 307.127 253.134 308.299 253.843C309.472 254.553 310.785 254.996 312.148 255.143C313.51 255.29 314.888 255.137 316.185 254.694L367.005 310.684L372.522 294.277L321.89 242.125C321.001 239.996 319.362 238.267 317.283 237.266C315.205 236.264 312.831 236.061 310.612 236.692C308.394 237.324 306.484 238.748 305.244 240.694C304.005 242.64 303.523 244.973 303.889 247.251Z" fill="#FFB6B6"/>
<path d="M433.202 304.849C433.202 304.849 437.533 316.025 425.295 322.233C413.057 328.44 371.798 317.191 365.094 315.577C362.995 315.072 359.246 310.904 355.086 305.416C353.219 302.952 351.269 300.223 349.348 297.44C348.237 295.829 344.991 296.15 343.921 294.544C342.856 292.947 343.967 289.424 342.987 287.913C338.333 280.742 334.863 274.995 334.863 274.995L339.288 256.617C352.959 259.867 362.749 272.279 371.457 287.242L433.202 304.849Z" fill="#1AFFFF"/>
<path d="M446.4 283.327C460.194 283.327 471.376 272.145 471.376 258.351C471.376 244.557 460.194 233.375 446.4 233.375C432.606 233.375 421.424 244.557 421.424 258.351C421.424 272.145 432.606 283.327 446.4 283.327Z" fill="#FFB6B6"/>
<path d="M474.908 244.053C472.281 239.988 467.351 237.28 462.572 238.041C462.127 234.991 460.854 232.121 458.891 229.744C456.928 227.367 454.351 225.575 451.44 224.561C448.528 223.548 445.395 223.353 442.381 223.997C439.366 224.641 436.586 226.1 434.344 228.214C433.606 227.695 432.747 227.375 431.849 227.285C430.952 227.195 430.046 227.339 429.221 227.702C427.576 228.45 426.144 229.598 425.058 231.042C422.316 234.463 420.552 238.562 419.955 242.905C419.357 247.248 419.949 251.672 421.666 255.706C421.082 253.582 423.21 251.584 425.36 251.108C427.51 250.631 429.766 251.082 431.946 250.772C434.741 250.374 437.253 248.753 440.052 248.388C442.425 248.234 444.806 248.54 447.063 249.289C449.32 250.039 451.698 250.358 454.072 250.231C456.428 249.951 459.463 258.878 459.422 265.166C459.414 266.358 459.66 267.888 460.824 268.141C462.258 268.452 463.089 266.473 464.454 265.933C465.084 265.753 465.758 265.824 466.336 266.131C466.914 266.439 467.35 266.958 467.552 267.581C467.724 268.213 467.742 268.878 467.606 269.519C467.469 270.161 467.181 270.76 466.766 271.268C465.927 272.274 464.931 273.138 463.816 273.826L464.378 274.294C464.912 274.858 465.625 275.219 466.396 275.314C467.166 275.41 467.946 275.235 468.601 274.819C469.89 273.946 470.934 272.757 471.633 271.366C474.268 267.292 476.151 262.779 477.194 258.041C478.074 253.282 477.535 248.117 474.908 244.053Z" fill="#2F2E41"/>
<path d="M659.681 342.558C627.466 366.958 563.365 359.249 543.473 401.045C483.245 527.59 431.719 431.193 378.986 420.768L378.5 418.184C431.29 422.562 487.915 415.768 542.251 398.536C591.355 382.965 635.166 359.8 668.943 331.574L670.712 333.783C667.146 336.765 663.469 339.69 659.681 342.558Z" fill="#F2F2F2"/>
<path d="M523.476 673.997C522.708 676.27 84.6345 676.269 83.8066 674.002C84.573 671.724 522.647 671.724 523.476 673.997Z" fill="#CCCCCC"/>
</g>
<defs>
<clipPath id="clip0_2391_15">
<rect width="670.713" height="675.702" fill="white"/>
</clipPath>
</defs>
</svg>
